#!OML:ASF X:\für Bonn\!DataBase\2005_08_10_Bjorn_Final\c3d\bjorn.ASF
:FULLY-SPECIFIED
:DEGREES
211
root 0.972613 5.21686 20.3527 -416.296 -171.452 -5.39681
lowerback 44.3203 6.19964 14.7845
upperback 25.2069 2.2679 2.33651
thorax 9.22185 -2.10716 -6.21731
lowerneck -1.55893 2.91536 9.78881
upperneck 2.7439 3.90534 -9.65862
head 1.44765 1.89949 -4.42183
rclavicle -4.57205e-014 3.02153e-014
rhumerus -229.158 -135.05 103.988
rradius 19.9092
rwrist -36.6267
rhand -20.1468 -3.48403
rfingers 7.12502
rthumb 6.19812 -33.3734
lclavicle -4.57205e-014 3.02153e-014
lhumerus -419.125 66.3959 -329.233
lradius 12.4686
lwrist -44.0829
lhand -21.5081 -10.9833
lfingers 7.12502
lthumb 4.8838 18.9404
rfemur -198.453 -101.893 116.102
rtibia 145.351
rfoot -31.193 45.75
rtoes -2.77071
lfemur -61.2094 30.8965 1.40707
ltibia 140.788
lfoot -16.6636 -34.8469
ltoes -5.0802
212
root 0.955215 5.19077 20.3699 -416.671 -171.292 -5.17992
lowerback 44.4831 6.22651 14.85
upperback 25.1911 2.35982 2.34748
thorax 9.18365 -2.05859 -6.25566
lowerneck -1.70178 2.91148 9.38687
upperneck 3.06639 3.90447 -9.36709
head 1.55225 1.89442 -4.26273
rclavicle -8.94531e-015 -2.98177e-014
rhumerus -229.097 -135.438 103.582
rradius 20.0438
rwrist -37.2903
rhand -20.1126 -3.81261
rfingers 7.12502
rthumb 6.2311 -33.701
lclavicle -8.94531e-015 -2.98177e-014
lhumerus -418.506 66.3368 -328.906
lradius 12.4709
lwrist -44.399
lhand -21.7721 -10.7883
lfingers 7.12502
lthumb 4.62887 19.1411
rfemur -216.773 -103.218 135.787
rtibia 144.368
rfoot -26.8348 44.8069
rtoes -2.21433
lfemur -61.2277 30.8664 1.31129
ltibia 140.797
lfoot -15.2464 -36.2824
ltoes -2.57476
213
root 0.93633 5.16295 20.3873 -417.054 -171.15 -4.94006
lowerback 44.6832 6.22179 14.9637
upperback 25.154 2.4411 2.34853
thorax 9.11675 -2.00892 -6.32291
lowerneck -1.8312 2.89612 9.00516
upperneck 3.35884 3.88806 -9.10077
head 1.64543 1.88155 -4.11581
rclavicle 1.98785e-015 1.11319e-013
rhumerus -229.102 -135.809 103.211
rradius 20.222
rwrist -37.964
rhand -20.0712 -4.07171
rfingers 7.12502
rthumb 6.27103 -33.9589
lclavicle 1.98785e-015 1.11319e-013
lhumerus -418.133 66.3287 -328.891
lradius 12.4091
lwrist -45.0205
lhand -22.2291 -10.899
lfingers 7.12502
lthumb 4.18756 19.0396
rfemur -230.586 -105.869 150.944
rtibia 143.321
rfoot -22.6273 43.5959
rtoes -1.9105
lfemur -61.2711 30.8316 1.21435
ltibia 140.814
lfoot -13.8114 -37.5721
ltoes -0.22257
214
root 0.916804 5.13444 20.404 -417.436 -171.002 -4.72084
lowerback 44.8894 6.21654 15.0575
upperback 25.1247 2.50725 2.3445
thorax 9.05336 -1.97189 -6.38294
lowerneck -1.93204 2.88161 8.64395
upperneck 3.46865 3.85235 -8.51767
head 1.85945 1.87955 -4.30934
rclavicle 1.08338e-014 1.59028e-015
rhumerus -229.019 -136.287 102.758
rradius 20.3987
rwrist -38.7568
rhand -20.0762 -4.36548
rfingers 7.12502
rthumb 6.26624 -34.2528
lclavicle 1.08338e-014 1.59028e-015
lhumerus -417.501 66.235 -328.635
lradius 12.2972
lwrist -45.6733
lhand -22.6139 -11.0903
lfingers 7.12502
lthumb 3.81599 18.8553
rfemur -239.691 -109.299 161.312
rtibia 142.218
rfoot -18.6562 42.1702
rtoes -1.71481
lfemur -61.2975 30.8365 1.12409
ltibia 140.84
lfoot -12.3549 -38.7362
ltoes 1.96058
215
root 0.897349 5.10784 20.4232 -417.794 -170.882 -4.50581
lowerback 45.0607 6.21501 15.1862
upperback 25.124 2.57422 2.31716
thorax 9.04103 -1.92607 -6.48967
lowerneck -2.11529 2.87001 8.31725
upperneck 3.68667 3.83347 -8.25469
head 1.94583 1.86602 -4.14853
rclavicle -2.61402e-014 -1.33186e-014
rhumerus -228.924 -136.676 102.246
rradius 20.6602
rwrist -39.4651
rhand -20.0794 -4.69642
rfingers 7.12502
rthumb 6.26317 -34.5838
lclavicle -2.61402e-014 -1.33186e-014
lhumerus -416.789 66.2051 -328.403
lradius 12.1304
lwrist -46.5056
lhand -23.028 -11.1822
lfingers 7.12502
lthumb 3.4161 18.7701
rfemur -245.945 -113.432 168.875
rtibia 140.993
rfoot -14.8797 40.3557
rtoes -1.85081
lfemur -61.3386 30.8623 1.02695
ltibia 140.842
lfoot -10.9924 -39.6796
ltoes 3.90311
216
root 0.876713 5.08154 20.4438 -418.132 -170.726 -4.31235
lowerback 45.215 6.22209 15.2053
upperback 25.1358 2.59584 2.30742
thorax 9.02424 -1.92467 -6.51339
lowerneck -2.25637 2.88069 7.95534
upperneck 3.86871 3.84967 -8.06214
head 2.01689 1.8684 -4.00627
rclavicle 9.08943e-014 4.47266e-014
rhumerus -228.712 -137.353 101.601
rradius 21.0118
rwrist -40.3385
rhand -20.0792 -5.04836
rfingers 7.12502
rthumb 6.26337 -34.9358
lclavicle 9.08943e-014 4.47266e-014
lhumerus -415.761 66.0408 -327.712
lradius 12.0051
lwrist -47.1123
lhand -23.5206 -10.94
lfingers 7.12502
lthumb 2.94033 19.0195
rfemur -250.073 -117.929 174.276
rtibia 139.614
rfoot -11.3822 38.244
rtoes -2.31341
lfemur -61.4303 30.7952 0.813991
ltibia 140.851
lfoot -9.80407 -40.3276
ltoes 5.40123
217
root 0.855006 5.05353 20.4627 -418.467 -170.607 -4.13585
lowerback 45.3818 6.23602 15.2524
upperback 25.1646 2.62314 2.28449
thorax 9.0316 -1.91881 -6.56859
lowerneck -2.44274 2.90215 7.68453
upperneck 4.0561 3.87693 -7.89895
head 2.10264 1.87653 -3.89276
rclavicle -8.52289e-014 2.14687e-014
rhumerus -228.515 -137.897 101.015
rradius 21.3725
rwrist -41.0555
rhand -20.088 -5.42313
rfingers 7.12502
rthumb 6.25487 -35.3108
lclavicle -8.52289e-014 2.14687e-014
lhumerus -413.564 65.4294 -325.76
lradius 11.9126
lwrist -47.2321
lhand -24.0435 -10.5217
lfingers 7.12502
lthumb 2.43537 19.4442
rfemur -252.665 -122.194 178.045
rtibia 138.209
rfoot -8.37807 36.1732
rtoes -2.93195
lfemur -61.4749 30.9477 0.700747
ltibia 140.874
lfoot -8.7798 -40.8425
ltoes 6.57591
218
root 0.832703 5.02308 20.4809 -418.8 -170.477 -3.96785
lowerback 45.5498 6.24115 15.3008
upperback 25.2098 2.62897 2.23189
thorax 9.0572 -1.92211 -6.6532
lowerneck -2.62272 2.92473 7.52072
upperneck 4.2323 3.90367 -7.76333
head 2.18755 1.88607 -3.81075
rclavicle -1.50579e-014 1.09332e-014
rhumerus -228.265 -138.508 100.318
rradius 21.7579
rwrist -41.8089
rhand -20.1302 -5.83525
rfingers 7.12502
rthumb 6.2141 -35.7241
lclavicle -1.50579e-014 1.09332e-014
lhumerus -411.194 64.7073 -323.679
lradius 11.8272
lwrist -47.422
lhand -24.5249 -9.89168
lfingers 7.12502
lthumb 1.97044 20.079
rfemur -254.261 -125.847 180.638
rtibia 136.848
rfoot -5.86807 34.4066
rtoes -3.59766
lfemur -61.5299 31.0694 0.572371
ltibia 140.912
lfoot -7.73082 -41.2633
ltoes 7.86847
219
root 0.808625 4.99037 20.4982 -419.113 -170.383 -3.80094
lowerback 45.6867 6.26202 15.3052
upperback 25.2665 2.62204 2.22367
thorax 9.09514 -1.94642 -6.66629
lowerneck -2.75586 2.96004 7.26333
upperneck 4.37999 3.95295 -7.62923
head 2.25328 1.90567 -3.71061
rclavicle 2.13321e-014 2.40032e-014
rhumerus -228.026 -139.128 99.7801
rradius 22.0732
rwrist -42.3952
rhand -20.0662 -6.17626
rfingers 7.12502
rthumb 6.27586 -36.0633
lclavicle 2.13321e-014 2.40032e-014
lhumerus -408.829 63.8236 -321.479
lradius 11.7752
lwrist -47.4269
lhand -24.9341 -9.22321
lfingers 7.12502
lthumb 1.57522 20.7507
rfemur -255.374 -129.012 182.643
rtibia 135.538
rfoot -3.71685 32.8229
rtoes -4.28139
lfemur -61.6437 31.3246 0.476681
ltibia 140.988
lfoot -7.08441 -41.5552
ltoes 8.40012
220
root 0.783117 4.95489 20.5136 -419.413 -170.275 -3.64374
lowerback 46.9024 6.06794 15.429
upperback 24.4604 2.69103 1.83099
thorax 8.90968 -1.97939 -6.62578
lowerneck -2.8399 2.99863 7.08535
upperneck 4.50653 4.00638 -7.50798
head 2.30593 1.92955 -3.63102
rclavicle 4.31673e-014 -9.00122e-015
rhumerus -227.776 -139.698 99.286
rradius 22.2912
rwrist -42.8935
rhand -20.0049 -6.52567
rfingers 7.12502
rthumb 6.33512 -36.4109
lclavicle 4.31673e-014 -9.00122e-015
lhumerus -407.182 63.2071 -320.14
lradius 11.6854
lwrist -47.8497
lhand -25.2722 -8.64453
lfingers 7.12502
lthumb 1.24871 21.3316
rfemur -256.168 -131.819 184.255
rtibia 134.212
rfoot -1.73637 31.3196
rtoes -4.74007
lfemur -61.7656 31.6704 0.366885
ltibia 141.084
lfoot -6.38815 -41.7709
ltoes 9.01069
221
root 0.757104 4.91841 20.529 -419.688 -170.179 -3.51067
lowerback 47.0245 6.09351 15.435
upperback 24.5278 2.68457 1.77963
thorax 8.97257 -1.99612 -6.68693
lowerneck -2.9732 3.02713 6.98812
upperneck 4.64341 4.04147 -7.396
head 2.37246 1.94506 -3.571
rclavicle 3.82909e-014 -3.68249e-014
rhumerus -227.447 -140.254 98.7105
rradius 22.5085
rwrist -43.4231
rhand -19.934 -6.84539
rfingers 7.12502
rthumb 6.40353 -36.7286
lclavicle 3.82909e-014 -3.68249e-014
lhumerus -405.793 62.7363 -319.162
lradius 11.5795
lwrist -48.5676
lhand -25.5033 -8.23629
lfingers 7.12502
lthumb 1.02552 21.741
rfemur -256.778 -134.376 185.63
rtibia 132.868
rfoot 0.219827 29.7709
rtoes -4.74563
lfemur -61.9001 32.1214 0.281668
ltibia 141.192
lfoot -5.7517 -41.9831
ltoes 9.61317
